<svg xmlns="http://www.w3.org/2000/svg" xmlns:xlink="http://www.w3.org/1999/xlink" width="500" zoomAndPan="magnify" viewBox="0 0 375 374.999991" height="500" preserveAspectRatio="xMidYMid meet" version="1.2"><defs><clipPath id="e7274f0d1f"><path d="M 76.109375 62.277344 L 298.859375 62.277344 L 298.859375 258.777344 L 76.109375 258.777344 Z M 76.109375 62.277344 "/></clipPath></defs><g id="21d6bc1e59"><rect x="0" width="375" y="0" height="374.999991" style="fill:#ffffff;fill-opacity:1;stroke:none;"/><rect x="0" width="375" y="0" height="374.999991" style="fill:#ffffff;fill-opacity:1;stroke:none;"/><path style=" stroke:none;fill-rule:nonzero;fill:#000000;fill-opacity:1;" d="M 249.285156 254.230469 L 249.285156 147.039062 L 187.535156 147.039062 L 187.535156 254.230469 L 80.34375 254.230469 L 80.34375 154.453125 L 294.621094 68.765625 L 294.621094 254.230469 Z M 249.285156 254.230469 "/><g clip-rule="nonzero" clip-path="url(#e7274f0d1f)"><path style=" stroke:none;fill-rule:nonzero;fill:#ffffff;fill-opacity:1;" d="M 287.3125 67.175781 L 81.402344 149.476562 L 76.109375 151.59375 L 76.109375 258.46875 L 191.773438 258.46875 L 245.050781 228.492188 L 245.050781 258.46875 L 298.964844 258.46875 L 298.964844 62.515625 Z M 290.382812 249.996094 L 253.417969 249.996094 L 253.417969 142.804688 L 183.191406 142.804688 L 183.191406 249.996094 L 84.582031 249.996094 L 84.582031 157.421875 L 290.382812 75.121094 Z M 290.382812 249.996094 "/></g><path style=" stroke:none;fill-rule:nonzero;fill:#000000;fill-opacity:1;" d="M 191.667969 151.277344 L 191.773438 248.722656 L 230.117188 227.222656 L 230.117188 172.886719 Z M 191.667969 151.277344 "/><g style="fill:#000000;fill-opacity:1;"><g transform="translate(81.247141, 293.122716)"><path style="stroke:none" d="M 13.4375 -0.59375 L 11.15625 -7.3125 L 5 -7.3125 L 2.609375 -0.59375 L 4.9375 -0.59375 L 4.9375 0 L 0.1875 0 L 0.1875 -0.59375 L 1.640625 -0.59375 L 9.578125 -21.953125 L 12.125 -21.953125 L 19.96875 -0.59375 L 21.390625 -0.59375 L 21.390625 0 L 11.21875 0 L 11.21875 -0.59375 Z M 8.203125 -16.140625 L 5.28125 -7.984375 L 10.90625 -7.984375 Z M 8.203125 -16.140625 "/></g></g><g style="fill:#000000;fill-opacity:1;"><g transform="translate(100.203752, 293.122716)"><path style="stroke:none" d="M 10.203125 -11 L 8.546875 -11 L 8.546875 -0.59375 L 10.578125 -0.59375 L 10.578125 0 L 0.46875 0 L 0.46875 -0.59375 L 2.484375 -0.59375 L 2.484375 -21.171875 L 0.46875 -21.171875 L 0.46875 -21.765625 L 9.859375 -21.765625 C 12.554688 -21.765625 14.46875 -21.625 15.59375 -21.34375 C 16.71875 -21.0625 17.507812 -20.722656 17.96875 -20.328125 C 18.96875 -19.523438 19.46875 -18.242188 19.46875 -16.484375 C 19.46875 -14.722656 19.03125 -13.460938 18.15625 -12.703125 C 17.289062 -11.941406 15.960938 -11.488281 14.171875 -11.34375 L 14.171875 -11.25 C 15.859375 -11.019531 17.03125 -10.519531 17.6875 -9.75 C 18.351562 -8.988281 18.6875 -7.707031 18.6875 -5.90625 L 18.6875 -4.265625 C 18.6875 -3.179688 18.742188 -2.453125 18.859375 -2.078125 C 18.972656 -1.710938 19.21875 -1.53125 19.59375 -1.53125 C 19.96875 -1.53125 20.257812 -1.695312 20.46875 -2.03125 C 20.6875 -2.375 20.890625 -3.097656 21.078125 -4.203125 L 21.609375 -4.140625 C 21.378906 -2.378906 20.976562 -1.195312 20.40625 -0.59375 C 19.84375 0.0078125 18.707031 0.3125 17 0.3125 C 15.300781 0.3125 14.09375 -0.0820312 13.375 -0.875 C 12.664062 -1.675781 12.3125 -3.175781 12.3125 -5.375 L 12.3125 -7.65625 C 12.3125 -8.8125 12.160156 -9.65625 11.859375 -10.1875 C 11.554688 -10.726562 11.003906 -11 10.203125 -11 Z M 8.546875 -21.171875 L 8.546875 -11.59375 L 9.546875 -11.59375 C 10.722656 -11.59375 11.597656 -11.957031 12.171875 -12.6875 C 12.742188 -13.414062 13.03125 -14.597656 13.03125 -16.234375 L 13.03125 -17.125 C 13.03125 -18.769531 12.753906 -19.851562 12.203125 -20.375 C 11.648438 -20.90625 10.773438 -21.171875 9.578125 -21.171875 Z M 8.546875 -21.171875 "/></g></g><g style="fill:#000000;fill-opacity:1;"><g transform="translate(119.844077, 293.122716)"><path style="stroke:none" d="M 13.4375 -0.59375 L 11.15625 -7.3125 L 5 -7.3125 L 2.609375 -0.59375 L 4.9375 -0.59375 L 4.9375 0 L 0.1875 0 L 0.1875 -0.59375 L 1.640625 -0.59375 L 9.578125 -21.953125 L 12.125 -21.953125 L 19.96875 -0.59375 L 21.390625 -0.59375 L 21.390625 0 L 11.21875 0 L 11.21875 -0.59375 Z M 8.203125 -16.140625 L 5.28125 -7.984375 L 10.90625 -7.984375 Z M 8.203125 -16.140625 "/></g></g><g style="fill:#000000;fill-opacity:1;"><g transform="translate(138.800688, 293.122716)"><path style="stroke:none" d="M 19.78125 -21.765625 L 20.09375 -13.96875 L 19.5 -13.96875 C 18.582031 -16.71875 17.769531 -18.59375 17.0625 -19.59375 C 16.363281 -20.601562 15.347656 -21.109375 14.015625 -21.109375 L 13.65625 -21.109375 L 13.65625 -0.65625 L 16.296875 -0.65625 L 16.296875 0 L 4.9375 0 L 4.9375 -0.65625 L 7.59375 -0.65625 L 7.59375 -21.109375 L 7.1875 -21.109375 C 5.851562 -21.109375 4.820312 -20.582031 4.09375 -19.53125 C 3.375 -18.488281 2.578125 -16.632812 1.703125 -13.96875 L 1.125 -13.96875 L 1.4375 -21.765625 Z M 19.78125 -21.765625 "/></g></g><g style="fill:#000000;fill-opacity:1;"><g transform="translate(157.415441, 293.122716)"><path style="stroke:none" d="M 13.4375 -0.59375 L 11.15625 -7.3125 L 5 -7.3125 L 2.609375 -0.59375 L 4.9375 -0.59375 L 4.9375 0 L 0.1875 0 L 0.1875 -0.59375 L 1.640625 -0.59375 L 9.578125 -21.953125 L 12.125 -21.953125 L 19.96875 -0.59375 L 21.390625 -0.59375 L 21.390625 0 L 11.21875 0 L 11.21875 -0.59375 Z M 8.203125 -16.140625 L 5.28125 -7.984375 L 10.90625 -7.984375 Z M 8.203125 -16.140625 "/></g></g><g style="fill:#000000;fill-opacity:1;"><g transform="translate(176.372051, 293.122716)"><path style="stroke:none" d="M 18.34375 -21.171875 L 18.34375 0 L 14 0 L 3.328125 -20.125 L 3.328125 -0.59375 L 5.03125 -0.59375 L 5.03125 0 L 0.78125 0 L 0.78125 -0.59375 L 2.484375 -0.59375 L 2.484375 -21.171875 L 0.78125 -21.171875 L 0.78125 -21.765625 L 9.359375 -21.765625 L 17.5 -6.15625 L 17.5 -21.171875 L 15.796875 -21.171875 L 15.796875 -21.765625 L 20.0625 -21.765625 L 20.0625 -21.171875 Z M 18.34375 -21.171875 "/></g></g><g style="fill:#000000;fill-opacity:1;"><g transform="translate(194.582781, 293.122716)"><path style="stroke:none" d="M 0.78125 -21.765625 L 10.265625 -21.765625 L 10.265625 -21.171875 L 8.546875 -21.171875 L 8.546875 -0.59375 L 10.265625 -0.59375 L 10.265625 0 L 0.78125 0 L 0.78125 -0.59375 L 2.484375 -0.59375 L 2.484375 -21.171875 L 0.78125 -21.171875 Z M 0.78125 -21.765625 "/></g></g><g style="fill:#000000;fill-opacity:1;"><g transform="translate(203.004946, 293.122716)"><path style="stroke:none" d=""/></g></g><g style="fill:#000000;fill-opacity:1;"><g transform="translate(205.987436, 293.122716)"><path style="stroke:none" d=""/></g></g><g style="fill:#000000;fill-opacity:1;"><g transform="translate(208.969927, 293.122716)"><path style="stroke:none" d=""/></g></g><g style="fill:#000000;fill-opacity:1;"><g transform="translate(211.952417, 293.122716)"><path style="stroke:none" d=""/></g></g><g style="fill:#000000;fill-opacity:1;"><g transform="translate(214.934907, 293.122716)"><path style="stroke:none" d=""/></g></g><g style="fill:#000000;fill-opacity:1;"><g transform="translate(217.922917, 293.122716)"><path style="stroke:none" d="M 0.65625 -21.765625 L 9.953125 -21.765625 C 12.828125 -21.765625 14.984375 -21.375 16.421875 -20.59375 C 17.867188 -19.820312 18.59375 -18.515625 18.59375 -16.671875 C 18.59375 -13.828125 16.882812 -12.125 13.46875 -11.5625 L 13.46875 -11.5 C 17.613281 -10.988281 19.6875 -9.1875 19.6875 -6.09375 C 19.6875 -3.832031 18.832031 -2.25 17.125 -1.34375 C 15.425781 -0.445312 12.984375 0 9.796875 0 L 0.65625 0 L 0.65625 -0.59375 L 2.671875 -0.59375 L 2.671875 -21.171875 L 0.65625 -21.171875 Z M 8.734375 -11 L 8.734375 -0.59375 L 10.203125 -0.59375 C 11.335938 -0.59375 12.132812 -0.984375 12.59375 -1.765625 C 13.050781 -2.554688 13.28125 -3.71875 13.28125 -5.25 L 13.28125 -6.90625 C 13.28125 -8.269531 13 -9.289062 12.4375 -9.96875 C 11.875 -10.65625 10.878906 -11 9.453125 -11 Z M 8.734375 -21.171875 L 8.734375 -11.59375 L 9.546875 -11.59375 C 10.617188 -11.59375 11.367188 -11.921875 11.796875 -12.578125 C 12.222656 -13.234375 12.4375 -14.234375 12.4375 -15.578125 L 12.4375 -17.046875 C 12.4375 -18.578125 12.25 -19.644531 11.875 -20.25 C 11.5 -20.863281 10.785156 -21.171875 9.734375 -21.171875 Z M 8.734375 -21.171875 "/></g></g><g style="fill:#000000;fill-opacity:1;"><g transform="translate(235.79179, 293.122716)"><path style="stroke:none" d="M 13.4375 -0.59375 L 11.15625 -7.3125 L 5 -7.3125 L 2.609375 -0.59375 L 4.9375 -0.59375 L 4.9375 0 L 0.1875 0 L 0.1875 -0.59375 L 1.640625 -0.59375 L 9.578125 -21.953125 L 12.125 -21.953125 L 19.96875 -0.59375 L 21.390625 -0.59375 L 21.390625 0 L 11.21875 0 L 11.21875 -0.59375 Z M 8.203125 -16.140625 L 5.28125 -7.984375 L 10.90625 -7.984375 Z M 8.203125 -16.140625 "/></g></g><g style="fill:#000000;fill-opacity:1;"><g transform="translate(254.7484, 293.122716)"><path style="stroke:none" d="M 10.109375 -0.34375 C 11.140625 -0.34375 12.050781 -0.617188 12.84375 -1.171875 C 13.644531 -1.734375 14.046875 -2.578125 14.046875 -3.703125 C 14.046875 -4.835938 13.613281 -5.707031 12.75 -6.3125 C 11.894531 -6.914062 10.675781 -7.4375 9.09375 -7.875 C 7.507812 -8.320312 6.359375 -8.710938 5.640625 -9.046875 C 4.929688 -9.378906 4.253906 -9.816406 3.609375 -10.359375 C 2.316406 -11.429688 1.671875 -13.097656 1.671875 -15.359375 C 1.671875 -17.203125 2.328125 -18.785156 3.640625 -20.109375 C 4.960938 -21.441406 6.765625 -22.109375 9.046875 -22.109375 C 10.148438 -22.109375 11.296875 -21.945312 12.484375 -21.625 C 13.671875 -21.300781 14.410156 -21.140625 14.703125 -21.140625 C 14.992188 -21.140625 15.253906 -21.347656 15.484375 -21.765625 L 15.828125 -21.765625 L 16.046875 -15.484375 L 15.546875 -15.484375 C 14.546875 -17.285156 13.503906 -18.726562 12.421875 -19.8125 C 11.335938 -20.90625 10.15625 -21.453125 8.875 -21.453125 C 7.601562 -21.453125 6.613281 -21.15625 5.90625 -20.5625 C 5.195312 -19.976562 4.84375 -19.191406 4.84375 -18.203125 C 4.84375 -17.222656 5.265625 -16.46875 6.109375 -15.9375 C 6.953125 -15.40625 7.984375 -14.972656 9.203125 -14.640625 C 10.421875 -14.304688 11.222656 -14.078125 11.609375 -13.953125 C 11.992188 -13.835938 12.472656 -13.671875 13.046875 -13.453125 C 13.617188 -13.234375 14.082031 -13.003906 14.4375 -12.765625 C 14.800781 -12.523438 15.1875 -12.222656 15.59375 -11.859375 C 16 -11.492188 16.316406 -11.097656 16.546875 -10.671875 C 17.097656 -9.671875 17.375 -8.488281 17.375 -7.125 C 17.375 -4.882812 16.675781 -3.082031 15.28125 -1.71875 C 13.882812 -0.363281 12.046875 0.3125 9.765625 0.3125 C 8.578125 0.3125 7.222656 0.15625 5.703125 -0.15625 C 4.179688 -0.46875 3.335938 -0.625 3.171875 -0.625 C 2.878906 -0.625 2.597656 -0.3125 2.328125 0.3125 L 1.890625 0.3125 L 1.578125 -7.09375 L 2.109375 -7.09375 C 3.023438 -5.289062 4.191406 -3.710938 5.609375 -2.359375 C 7.035156 -1.015625 8.535156 -0.34375 10.109375 -0.34375 Z M 10.109375 -0.34375 "/></g></g><g style="fill:#000000;fill-opacity:1;"><g transform="translate(270.783666, 293.122716)"><path style="stroke:none" d="M 0.65625 -21.765625 L 16.828125 -21.765625 L 17.125 -15.609375 L 16.578125 -15.609375 C 15.703125 -17.703125 14.785156 -19.132812 13.828125 -19.90625 C 12.878906 -20.6875 11.484375 -21.078125 9.640625 -21.078125 L 8.546875 -21.078125 L 8.546875 -11.46875 L 9.609375 -11.46875 C 10.578125 -11.46875 11.394531 -11.835938 12.0625 -12.578125 C 12.726562 -13.316406 13.195312 -14.304688 13.46875 -15.546875 L 13.9375 -15.546875 L 13.9375 -6.34375 L 13.40625 -6.34375 C 13.03125 -7.894531 12.523438 -9.003906 11.890625 -9.671875 C 11.253906 -10.335938 10.390625 -10.671875 9.296875 -10.671875 L 8.546875 -10.671875 L 8.546875 -0.6875 L 9.734375 -0.6875 C 11.640625 -0.6875 13.257812 -1.253906 14.59375 -2.390625 C 15.9375 -3.535156 16.851562 -5 17.34375 -6.78125 L 17.96875 -6.78125 L 17.71875 0 L 0.65625 0 L 0.65625 -0.6875 L 2.484375 -0.6875 L 2.484375 -21.078125 L 0.65625 -21.078125 Z M 0.65625 -21.765625 "/></g></g><g style="fill:#000000;fill-opacity:1;"><g transform="translate(143.274136, 312.618817)"><path style="stroke:none" d="M 0.859375 0.046875 C 0.773438 0.046875 0.710938 0.015625 0.671875 -0.046875 C 0.628906 -0.109375 0.609375 -0.179688 0.609375 -0.265625 C 0.617188 -0.398438 0.644531 -0.484375 0.6875 -0.515625 C 0.738281 -0.546875 0.832031 -0.5625 0.96875 -0.5625 C 1.226562 -0.5625 1.421875 -0.609375 1.546875 -0.703125 C 1.671875 -0.796875 1.75 -0.910156 1.78125 -1.046875 C 1.8125 -1.179688 1.832031 -1.375 1.84375 -1.625 L 1.875 -7.15625 C 1.875 -7.4375 1.84375 -7.648438 1.78125 -7.796875 C 1.71875 -7.941406 1.617188 -8.046875 1.484375 -8.109375 C 1.359375 -8.171875 1.175781 -8.226562 0.9375 -8.28125 C 0.78125 -8.3125 0.679688 -8.335938 0.640625 -8.359375 C 0.597656 -8.390625 0.578125 -8.46875 0.578125 -8.59375 C 0.578125 -8.707031 0.609375 -8.78125 0.671875 -8.8125 C 0.734375 -8.851562 0.832031 -8.875 0.96875 -8.875 C 1.539062 -8.875 1.992188 -8.832031 2.328125 -8.75 C 2.660156 -8.675781 2.953125 -8.535156 3.203125 -8.328125 C 3.460938 -8.128906 3.75 -7.820312 4.0625 -7.40625 L 7.875 -2.390625 L 7.921875 -2.390625 L 7.890625 -7.15625 C 7.878906 -7.414062 7.859375 -7.609375 7.828125 -7.734375 C 7.804688 -7.867188 7.734375 -7.984375 7.609375 -8.078125 C 7.484375 -8.179688 7.285156 -8.234375 7.015625 -8.234375 L 6.921875 -8.234375 C 6.828125 -8.234375 6.757812 -8.25 6.71875 -8.28125 C 6.675781 -8.3125 6.648438 -8.394531 6.640625 -8.53125 C 6.640625 -8.613281 6.660156 -8.6875 6.703125 -8.75 C 6.753906 -8.8125 6.820312 -8.84375 6.90625 -8.84375 C 7.5 -8.8125 7.941406 -8.796875 8.234375 -8.796875 C 8.410156 -8.796875 8.75 -8.804688 9.25 -8.828125 L 9.546875 -8.84375 C 9.628906 -8.84375 9.691406 -8.8125 9.734375 -8.75 C 9.773438 -8.6875 9.796875 -8.613281 9.796875 -8.53125 C 9.785156 -8.394531 9.753906 -8.3125 9.703125 -8.28125 C 9.660156 -8.25 9.578125 -8.234375 9.453125 -8.234375 C 9.179688 -8.234375 8.984375 -8.179688 8.859375 -8.078125 C 8.734375 -7.984375 8.65625 -7.867188 8.625 -7.734375 C 8.59375 -7.609375 8.578125 -7.414062 8.578125 -7.15625 L 8.546875 -0.140625 C 8.535156 -0.015625 8.414062 0.046875 8.1875 0.046875 C 8.019531 0.046875 7.890625 -0.015625 7.796875 -0.140625 L 2.53125 -7.15625 L 2.5 -7.15625 L 2.515625 -1.625 C 2.523438 -1.375 2.546875 -1.179688 2.578125 -1.046875 C 2.609375 -0.910156 2.6875 -0.796875 2.8125 -0.703125 C 2.9375 -0.609375 3.132812 -0.5625 3.40625 -0.5625 L 3.484375 -0.5625 C 3.578125 -0.5625 3.644531 -0.539062 3.6875 -0.5 C 3.726562 -0.46875 3.753906 -0.390625 3.765625 -0.265625 C 3.765625 -0.179688 3.742188 -0.109375 3.703125 -0.046875 C 3.660156 0.015625 3.597656 0.046875 3.515625 0.046875 C 2.921875 0.015625 2.46875 0 2.15625 0 C 1.96875 0 1.644531 0.0078125 1.1875 0.03125 Z M 0.859375 0.046875 "/></g></g><g style="fill:#000000;fill-opacity:1;"><g transform="translate(152.929412, 312.618817)"><path style="stroke:none" d="M 2.34375 0.171875 C 1.78125 0.171875 1.328125 0.015625 0.984375 -0.296875 C 0.640625 -0.617188 0.46875 -1.015625 0.46875 -1.484375 C 0.46875 -2.078125 0.660156 -2.519531 1.046875 -2.8125 C 1.441406 -3.101562 1.910156 -3.289062 2.453125 -3.375 C 2.992188 -3.46875 3.691406 -3.535156 4.546875 -3.578125 L 4.546875 -4.6875 C 4.546875 -5.132812 4.429688 -5.476562 4.203125 -5.71875 C 3.972656 -5.957031 3.609375 -6.078125 3.109375 -6.078125 C 2.816406 -6.078125 2.5625 -5.988281 2.34375 -5.8125 C 2.132812 -5.632812 2.03125 -5.394531 2.03125 -5.09375 C 2.03125 -4.945312 2.066406 -4.820312 2.140625 -4.71875 C 2.210938 -4.625 2.285156 -4.546875 2.359375 -4.484375 C 2.441406 -4.421875 2.484375 -4.382812 2.484375 -4.375 C 2.484375 -4.320312 2.421875 -4.25 2.296875 -4.15625 C 2.179688 -4.070312 2.039062 -4.03125 1.875 -4.03125 C 1.601562 -4.03125 1.382812 -4.128906 1.21875 -4.328125 C 1.050781 -4.535156 0.96875 -4.78125 0.96875 -5.0625 C 0.96875 -5.539062 1.179688 -5.894531 1.609375 -6.125 C 2.046875 -6.363281 2.570312 -6.484375 3.1875 -6.484375 C 3.945312 -6.484375 4.566406 -6.335938 5.046875 -6.046875 C 5.523438 -5.753906 5.765625 -5.222656 5.765625 -4.453125 L 5.765625 -1.203125 C 5.773438 -1.003906 5.835938 -0.816406 5.953125 -0.640625 C 6.066406 -0.460938 6.25 -0.375 6.5 -0.375 C 6.570312 -0.375 6.625 -0.359375 6.65625 -0.328125 C 6.6875 -0.304688 6.703125 -0.25 6.703125 -0.15625 C 6.703125 -0.0390625 6.613281 0.0390625 6.4375 0.09375 C 6.269531 0.144531 6.101562 0.171875 5.9375 0.171875 C 5.582031 0.171875 5.269531 0.0664062 5 -0.140625 C 4.726562 -0.347656 4.578125 -0.625 4.546875 -0.96875 C 4.347656 -0.601562 4.046875 -0.320312 3.640625 -0.125 C 3.234375 0.0703125 2.800781 0.171875 2.34375 0.171875 Z M 2.78125 -0.578125 C 3.101562 -0.578125 3.394531 -0.65625 3.65625 -0.8125 C 3.925781 -0.976562 4.140625 -1.195312 4.296875 -1.46875 C 4.460938 -1.738281 4.546875 -2.046875 4.546875 -2.390625 L 4.546875 -3.171875 C 3.566406 -3.097656 2.875 -2.941406 2.46875 -2.703125 C 2.070312 -2.460938 1.875 -2.070312 1.875 -1.53125 C 1.875 -0.894531 2.175781 -0.578125 2.78125 -0.578125 Z M 2.78125 -0.578125 "/></g></g><g style="fill:#000000;fill-opacity:1;"><g transform="translate(159.296367, 312.618817)"><path style="stroke:none" d="M 0.546875 0.046875 C 0.472656 0.046875 0.414062 0.0195312 0.375 -0.03125 C 0.34375 -0.09375 0.328125 -0.160156 0.328125 -0.234375 C 0.328125 -0.359375 0.347656 -0.429688 0.390625 -0.453125 C 0.429688 -0.472656 0.515625 -0.484375 0.640625 -0.484375 C 0.878906 -0.484375 1.050781 -0.523438 1.15625 -0.609375 C 1.257812 -0.691406 1.316406 -0.789062 1.328125 -0.90625 C 1.347656 -1.019531 1.359375 -1.195312 1.359375 -1.4375 L 1.359375 -8.21875 C 1.359375 -8.457031 1.351562 -8.632812 1.34375 -8.75 C 1.332031 -8.863281 1.273438 -8.960938 1.171875 -9.046875 C 1.066406 -9.128906 0.894531 -9.171875 0.65625 -9.171875 C 0.539062 -9.171875 0.457031 -9.1875 0.40625 -9.21875 C 0.351562 -9.25 0.328125 -9.328125 0.328125 -9.453125 C 0.328125 -9.503906 0.34375 -9.554688 0.375 -9.609375 C 0.414062 -9.660156 0.472656 -9.691406 0.546875 -9.703125 C 1.128906 -9.785156 1.628906 -9.90625 2.046875 -10.0625 C 2.179688 -10.101562 2.289062 -10.128906 2.375 -10.140625 L 2.40625 -10.140625 C 2.5625 -10.140625 2.640625 -10.050781 2.640625 -9.875 L 2.640625 -3.515625 C 3.046875 -3.597656 3.378906 -3.769531 3.640625 -4.03125 L 4.8125 -5.21875 C 4.832031 -5.25 4.882812 -5.3125 4.96875 -5.40625 C 5.0625 -5.507812 5.109375 -5.59375 5.109375 -5.65625 C 5.109375 -5.800781 4.894531 -5.859375 4.46875 -5.828125 C 4.375 -5.847656 4.320312 -5.929688 4.3125 -6.078125 C 4.3125 -6.148438 4.332031 -6.210938 4.375 -6.265625 C 4.414062 -6.328125 4.46875 -6.359375 4.53125 -6.359375 C 4.945312 -6.328125 5.457031 -6.3125 6.0625 -6.3125 C 6.195312 -6.3125 6.398438 -6.320312 6.671875 -6.34375 L 7 -6.359375 C 7.0625 -6.359375 7.113281 -6.328125 7.15625 -6.265625 C 7.195312 -6.210938 7.21875 -6.148438 7.21875 -6.078125 C 7.207031 -5.960938 7.179688 -5.890625 7.140625 -5.859375 C 7.109375 -5.835938 7.054688 -5.828125 6.984375 -5.828125 C 6.640625 -5.828125 6.351562 -5.765625 6.125 -5.640625 C 5.90625 -5.523438 5.648438 -5.3125 5.359375 -5 L 4.1875 -3.8125 C 4.425781 -3.476562 4.9375 -2.878906 5.71875 -2.015625 C 6.070312 -1.628906 6.253906 -1.425781 6.265625 -1.40625 C 6.597656 -1.050781 6.84375 -0.8125 7 -0.6875 C 7.164062 -0.570312 7.367188 -0.503906 7.609375 -0.484375 C 7.628906 -0.484375 7.664062 -0.476562 7.71875 -0.46875 C 7.78125 -0.46875 7.828125 -0.445312 7.859375 -0.40625 C 7.898438 -0.375 7.921875 -0.316406 7.921875 -0.234375 C 7.921875 -0.046875 7.84375 0.046875 7.6875 0.046875 C 7.601562 0.046875 7.460938 0.0351562 7.265625 0.015625 C 7.078125 0.00390625 6.601562 0 5.84375 0 C 5.5625 -0.289062 4.914062 -1.023438 3.90625 -2.203125 C 3.582031 -2.578125 3.429688 -2.753906 3.453125 -2.734375 C 3.179688 -3.015625 2.910156 -3.144531 2.640625 -3.125 L 2.640625 -1.4375 C 2.640625 -1.195312 2.644531 -1.019531 2.65625 -0.90625 C 2.664062 -0.789062 2.722656 -0.691406 2.828125 -0.609375 C 2.929688 -0.523438 3.101562 -0.484375 3.34375 -0.484375 L 3.421875 -0.484375 C 3.503906 -0.484375 3.566406 -0.46875 3.609375 -0.4375 C 3.648438 -0.414062 3.671875 -0.347656 3.671875 -0.234375 C 3.671875 -0.160156 3.648438 -0.09375 3.609375 -0.03125 C 3.566406 0.0195312 3.515625 0.046875 3.453125 0.046875 C 2.910156 0.015625 2.425781 0 2 0 C 1.570312 0 1.085938 0.015625 0.546875 0.046875 Z M 0.546875 0.046875 "/></g></g><g style="fill:#000000;fill-opacity:1;"><g transform="translate(166.582934, 312.618817)"><path style="stroke:none" d="M 2.34375 0.171875 C 1.78125 0.171875 1.328125 0.015625 0.984375 -0.296875 C 0.640625 -0.617188 0.46875 -1.015625 0.46875 -1.484375 C 0.46875 -2.078125 0.660156 -2.519531 1.046875 -2.8125 C 1.441406 -3.101562 1.910156 -3.289062 2.453125 -3.375 C 2.992188 -3.46875 3.691406 -3.535156 4.546875 -3.578125 L 4.546875 -4.6875 C 4.546875 -5.132812 4.429688 -5.476562 4.203125 -5.71875 C 3.972656 -5.957031 3.609375 -6.078125 3.109375 -6.078125 C 2.816406 -6.078125 2.5625 -5.988281 2.34375 -5.8125 C 2.132812 -5.632812 2.03125 -5.394531 2.03125 -5.09375 C 2.03125 -4.945312 2.066406 -4.820312 2.140625 -4.71875 C 2.210938 -4.625 2.285156 -4.546875 2.359375 -4.484375 C 2.441406 -4.421875 2.484375 -4.382812 2.484375 -4.375 C 2.484375 -4.320312 2.421875 -4.25 2.296875 -4.15625 C 2.179688 -4.070312 2.039062 -4.03125 1.875 -4.03125 C 1.601562 -4.03125 1.382812 -4.128906 1.21875 -4.328125 C 1.050781 -4.535156 0.96875 -4.78125 0.96875 -5.0625 C 0.96875 -5.539062 1.179688 -5.894531 1.609375 -6.125 C 2.046875 -6.363281 2.570312 -6.484375 3.1875 -6.484375 C 3.945312 -6.484375 4.566406 -6.335938 5.046875 -6.046875 C 5.523438 -5.753906 5.765625 -5.222656 5.765625 -4.453125 L 5.765625 -1.203125 C 5.773438 -1.003906 5.835938 -0.816406 5.953125 -0.640625 C 6.066406 -0.460938 6.25 -0.375 6.5 -0.375 C 6.570312 -0.375 6.625 -0.359375 6.65625 -0.328125 C 6.6875 -0.304688 6.703125 -0.25 6.703125 -0.15625 C 6.703125 -0.0390625 6.613281 0.0390625 6.4375 0.09375 C 6.269531 0.144531 6.101562 0.171875 5.9375 0.171875 C 5.582031 0.171875 5.269531 0.0664062 5 -0.140625 C 4.726562 -0.347656 4.578125 -0.625 4.546875 -0.96875 C 4.347656 -0.601562 4.046875 -0.320312 3.640625 -0.125 C 3.234375 0.0703125 2.800781 0.171875 2.34375 0.171875 Z M 2.78125 -0.578125 C 3.101562 -0.578125 3.394531 -0.65625 3.65625 -0.8125 C 3.925781 -0.976562 4.140625 -1.195312 4.296875 -1.46875 C 4.460938 -1.738281 4.546875 -2.046875 4.546875 -2.390625 L 4.546875 -3.171875 C 3.566406 -3.097656 2.875 -2.941406 2.46875 -2.703125 C 2.070312 -2.460938 1.875 -2.070312 1.875 -1.53125 C 1.875 -0.894531 2.175781 -0.578125 2.78125 -0.578125 Z M 2.78125 -0.578125 "/></g></g><g style="fill:#000000;fill-opacity:1;"><g transform="translate(172.949888, 312.618817)"><path style="stroke:none" d="M 0.453125 2.859375 C 0.367188 2.859375 0.300781 2.789062 0.25 2.65625 C 0.238281 2.632812 0.234375 2.585938 0.234375 2.515625 C 0.234375 2.429688 0.273438 2.367188 0.359375 2.328125 C 0.796875 2.140625 1.117188 1.867188 1.328125 1.515625 C 1.535156 1.171875 1.671875 0.742188 1.734375 0.234375 C 1.804688 -0.273438 1.84375 -0.960938 1.84375 -1.828125 L 1.84375 -4.625 C 1.84375 -4.863281 1.832031 -5.039062 1.8125 -5.15625 C 1.800781 -5.269531 1.742188 -5.367188 1.640625 -5.453125 C 1.535156 -5.535156 1.363281 -5.578125 1.125 -5.578125 C 1.019531 -5.578125 0.9375 -5.59375 0.875 -5.625 C 0.820312 -5.65625 0.796875 -5.734375 0.796875 -5.859375 C 0.796875 -5.910156 0.8125 -5.960938 0.84375 -6.015625 C 0.882812 -6.066406 0.941406 -6.097656 1.015625 -6.109375 C 1.597656 -6.191406 2.097656 -6.3125 2.515625 -6.46875 C 2.648438 -6.507812 2.757812 -6.535156 2.84375 -6.546875 L 2.890625 -6.546875 C 3.035156 -6.546875 3.109375 -6.457031 3.109375 -6.28125 L 3.109375 -1.375 C 3.109375 -0.238281 2.910156 0.691406 2.515625 1.421875 C 2.117188 2.148438 1.457031 2.628906 0.53125 2.859375 Z M 2.375 -8.09375 C 2.113281 -8.09375 1.894531 -8.171875 1.71875 -8.328125 C 1.539062 -8.492188 1.453125 -8.703125 1.453125 -8.953125 C 1.453125 -9.160156 1.554688 -9.347656 1.765625 -9.515625 C 1.984375 -9.679688 2.226562 -9.765625 2.5 -9.765625 C 2.726562 -9.765625 2.914062 -9.679688 3.0625 -9.515625 C 3.207031 -9.359375 3.28125 -9.15625 3.28125 -8.90625 C 3.28125 -8.6875 3.191406 -8.492188 3.015625 -8.328125 C 2.847656 -8.171875 2.632812 -8.09375 2.375 -8.09375 Z M 2.375 -8.09375 "/></g></g><g style="fill:#000000;fill-opacity:1;"><g transform="translate(176.516199, 312.618817)"><path style="stroke:none" d="M 0.6875 0.046875 C 0.613281 0.046875 0.554688 0.0195312 0.515625 -0.03125 C 0.472656 -0.09375 0.453125 -0.160156 0.453125 -0.234375 C 0.460938 -0.359375 0.488281 -0.429688 0.53125 -0.453125 C 0.582031 -0.472656 0.671875 -0.484375 0.796875 -0.484375 C 1.035156 -0.484375 1.207031 -0.523438 1.3125 -0.609375 C 1.414062 -0.691406 1.472656 -0.789062 1.484375 -0.90625 C 1.492188 -1.019531 1.5 -1.195312 1.5 -1.4375 L 1.5 -4.625 C 1.5 -4.863281 1.492188 -5.039062 1.484375 -5.15625 C 1.472656 -5.269531 1.414062 -5.367188 1.3125 -5.453125 C 1.207031 -5.535156 1.035156 -5.578125 0.796875 -5.578125 C 0.679688 -5.578125 0.59375 -5.59375 0.53125 -5.625 C 0.476562 -5.65625 0.453125 -5.734375 0.453125 -5.859375 C 0.453125 -5.910156 0.472656 -5.960938 0.515625 -6.015625 C 0.554688 -6.066406 0.613281 -6.097656 0.6875 -6.109375 C 1.269531 -6.191406 1.769531 -6.3125 2.1875 -6.46875 C 2.320312 -6.507812 2.429688 -6.535156 2.515625 -6.546875 L 2.546875 -6.546875 C 2.703125 -6.546875 2.78125 -6.457031 2.78125 -6.28125 L 2.78125 -1.4375 C 2.78125 -1.195312 2.785156 -1.019531 2.796875 -0.90625 C 2.816406 -0.789062 2.878906 -0.691406 2.984375 -0.609375 C 3.085938 -0.523438 3.257812 -0.484375 3.5 -0.484375 L 3.578125 -0.484375 C 3.648438 -0.484375 3.707031 -0.46875 3.75 -0.4375 C 3.789062 -0.414062 3.8125 -0.347656 3.8125 -0.234375 C 3.8125 -0.160156 3.789062 -0.09375 3.75 -0.03125 C 3.71875 0.0195312 3.664062 0.046875 3.59375 0.046875 C 3.050781 0.015625 2.5625 0 2.125 0 C 1.707031 0 1.226562 0.015625 0.6875 0.046875 Z M 2.0625 -8.09375 C 1.800781 -8.09375 1.582031 -8.171875 1.40625 -8.328125 C 1.226562 -8.492188 1.140625 -8.703125 1.140625 -8.953125 C 1.140625 -9.160156 1.242188 -9.347656 1.453125 -9.515625 C 1.671875 -9.679688 1.914062 -9.765625 2.1875 -9.765625 C 2.414062 -9.765625 2.601562 -9.679688 2.75 -9.515625 C 2.894531 -9.359375 2.96875 -9.15625 2.96875 -8.90625 C 2.96875 -8.6875 2.878906 -8.492188 2.703125 -8.328125 C 2.535156 -8.171875 2.320312 -8.09375 2.0625 -8.09375 Z M 2.0625 -8.09375 "/></g></g><g style="fill:#000000;fill-opacity:1;"><g transform="translate(180.026777, 312.618817)"><path style="stroke:none" d="M 0.703125 0.046875 C 0.628906 0.046875 0.570312 0.0195312 0.53125 -0.03125 C 0.488281 -0.09375 0.46875 -0.160156 0.46875 -0.234375 C 0.476562 -0.359375 0.503906 -0.429688 0.546875 -0.453125 C 0.585938 -0.472656 0.671875 -0.484375 0.796875 -0.484375 C 1.035156 -0.484375 1.207031 -0.523438 1.3125 -0.609375 C 1.414062 -0.691406 1.472656 -0.789062 1.484375 -0.90625 C 1.503906 -1.019531 1.515625 -1.195312 1.515625 -1.4375 L 1.515625 -4.625 C 1.515625 -4.863281 1.507812 -5.039062 1.5 -5.15625 C 1.488281 -5.269531 1.429688 -5.367188 1.328125 -5.453125 C 1.222656 -5.535156 1.050781 -5.578125 0.8125 -5.578125 C 0.695312 -5.578125 0.609375 -5.59375 0.546875 -5.625 C 0.492188 -5.65625 0.46875 -5.734375 0.46875 -5.859375 C 0.46875 -5.910156 0.484375 -5.960938 0.515625 -6.015625 C 0.554688 -6.066406 0.617188 -6.097656 0.703125 -6.109375 C 1.304688 -6.203125 1.800781 -6.320312 2.1875 -6.46875 C 2.34375 -6.507812 2.453125 -6.535156 2.515625 -6.546875 L 2.546875 -6.546875 C 2.703125 -6.546875 2.78125 -6.457031 2.78125 -6.28125 L 2.78125 -5.40625 L 2.8125 -5.40625 C 2.875 -5.457031 3.015625 -5.59375 3.234375 -5.8125 C 3.453125 -6.03125 3.703125 -6.195312 3.984375 -6.3125 C 4.273438 -6.425781 4.601562 -6.484375 4.96875 -6.484375 C 5.40625 -6.484375 5.785156 -6.382812 6.109375 -6.1875 C 6.441406 -6 6.6875 -5.738281 6.84375 -5.40625 L 6.875 -5.40625 C 7.238281 -5.75 7.582031 -6.015625 7.90625 -6.203125 C 8.238281 -6.390625 8.664062 -6.484375 9.1875 -6.484375 C 9.8125 -6.484375 10.3125 -6.289062 10.6875 -5.90625 C 11.0625 -5.53125 11.25 -5.03125 11.25 -4.40625 L 11.25 -1.4375 C 11.25 -1.195312 11.253906 -1.019531 11.265625 -0.90625 C 11.285156 -0.789062 11.347656 -0.691406 11.453125 -0.609375 C 11.554688 -0.523438 11.726562 -0.484375 11.96875 -0.484375 L 12.0625 -0.484375 C 12.132812 -0.484375 12.1875 -0.46875 12.21875 -0.4375 C 12.257812 -0.414062 12.285156 -0.347656 12.296875 -0.234375 C 12.296875 -0.160156 12.273438 -0.09375 12.234375 -0.03125 C 12.191406 0.0195312 12.132812 0.046875 12.0625 0.046875 C 11.53125 0.015625 11.046875 0 10.609375 0 C 10.191406 0 9.707031 0.015625 9.15625 0.046875 C 9.082031 0.046875 9.023438 0.0195312 8.984375 -0.03125 C 8.953125 -0.09375 8.9375 -0.160156 8.9375 -0.234375 C 8.945312 -0.359375 8.972656 -0.429688 9.015625 -0.453125 C 9.054688 -0.472656 9.132812 -0.484375 9.25 -0.484375 C 9.488281 -0.484375 9.660156 -0.523438 9.765625 -0.609375 C 9.867188 -0.691406 9.929688 -0.789062 9.953125 -0.90625 C 9.972656 -1.019531 9.984375 -1.195312 9.984375 -1.4375 L 9.984375 -4.390625 C 9.984375 -4.816406 9.847656 -5.144531 9.578125 -5.375 C 9.304688 -5.601562 8.992188 -5.71875 8.640625 -5.71875 C 8.210938 -5.71875 7.863281 -5.613281 7.59375 -5.40625 C 7.320312 -5.195312 7.132812 -4.976562 7.03125 -4.75 L 7.03125 -1.4375 C 7.03125 -1.382812 7.023438 -1.257812 7.015625 -1.0625 C 7.015625 -0.863281 7.066406 -0.71875 7.171875 -0.625 C 7.273438 -0.53125 7.445312 -0.484375 7.6875 -0.484375 L 7.78125 -0.484375 C 7.863281 -0.484375 7.921875 -0.46875 7.953125 -0.4375 C 7.984375 -0.414062 8.003906 -0.347656 8.015625 -0.234375 C 8.015625 -0.160156 7.992188 -0.09375 7.953125 -0.03125 C 7.921875 0.0195312 7.867188 0.046875 7.796875 0.046875 C 7.242188 0.015625 6.769531 0 6.375 0 C 5.988281 0 5.519531 0.015625 4.96875 0.046875 C 4.894531 0.046875 4.835938 0.0195312 4.796875 -0.03125 C 4.765625 -0.09375 4.75 -0.160156 4.75 -0.234375 C 4.757812 -0.359375 4.785156 -0.429688 4.828125 -0.453125 C 4.867188 -0.472656 4.953125 -0.484375 5.078125 -0.484375 C 5.378906 -0.484375 5.566406 -0.546875 5.640625 -0.671875 C 5.710938 -0.796875 5.75 -0.941406 5.75 -1.109375 C 5.75 -1.273438 5.75 -1.382812 5.75 -1.4375 L 5.75 -4.390625 C 5.75 -4.816406 5.613281 -5.144531 5.34375 -5.375 C 5.082031 -5.601562 4.773438 -5.71875 4.421875 -5.71875 C 3.992188 -5.71875 3.644531 -5.613281 3.375 -5.40625 C 3.101562 -5.195312 2.90625 -4.976562 2.78125 -4.75 L 2.78125 -1.4375 C 2.78125 -1.195312 2.789062 -1.019531 2.8125 -0.90625 C 2.832031 -0.789062 2.894531 -0.691406 3 -0.609375 C 3.101562 -0.523438 3.273438 -0.484375 3.515625 -0.484375 L 3.59375 -0.484375 C 3.664062 -0.484375 3.71875 -0.46875 3.75 -0.4375 C 3.789062 -0.414062 3.816406 -0.347656 3.828125 -0.234375 C 3.828125 -0.160156 3.804688 -0.09375 3.765625 -0.03125 C 3.734375 0.0195312 3.679688 0.046875 3.609375 0.046875 C 3.066406 0.015625 2.578125 0 2.140625 0 C 1.722656 0 1.242188 0.015625 0.703125 0.046875 Z M 0.703125 0.046875 "/></g></g><g style="fill:#000000;fill-opacity:1;"><g transform="translate(191.897481, 312.618817)"><path style="stroke:none" d="M 2.34375 0.171875 C 1.78125 0.171875 1.328125 0.015625 0.984375 -0.296875 C 0.640625 -0.617188 0.46875 -1.015625 0.46875 -1.484375 C 0.46875 -2.078125 0.660156 -2.519531 1.046875 -2.8125 C 1.441406 -3.101562 1.910156 -3.289062 2.453125 -3.375 C 2.992188 -3.46875 3.691406 -3.535156 4.546875 -3.578125 L 4.546875 -4.6875 C 4.546875 -5.132812 4.429688 -5.476562 4.203125 -5.71875 C 3.972656 -5.957031 3.609375 -6.078125 3.109375 -6.078125 C 2.816406 -6.078125 2.5625 -5.988281 2.34375 -5.8125 C 2.132812 -5.632812 2.03125 -5.394531 2.03125 -5.09375 C 2.03125 -4.945312 2.066406 -4.820312 2.140625 -4.71875 C 2.210938 -4.625 2.285156 -4.546875 2.359375 -4.484375 C 2.441406 -4.421875 2.484375 -4.382812 2.484375 -4.375 C 2.484375 -4.320312 2.421875 -4.25 2.296875 -4.15625 C 2.179688 -4.070312 2.039062 -4.03125 1.875 -4.03125 C 1.601562 -4.03125 1.382812 -4.128906 1.21875 -4.328125 C 1.050781 -4.535156 0.96875 -4.78125 0.96875 -5.0625 C 0.96875 -5.539062 1.179688 -5.894531 1.609375 -6.125 C 2.046875 -6.363281 2.570312 -6.484375 3.1875 -6.484375 C 3.945312 -6.484375 4.566406 -6.335938 5.046875 -6.046875 C 5.523438 -5.753906 5.765625 -5.222656 5.765625 -4.453125 L 5.765625 -1.203125 C 5.773438 -1.003906 5.835938 -0.816406 5.953125 -0.640625 C 6.066406 -0.460938 6.25 -0.375 6.5 -0.375 C 6.570312 -0.375 6.625 -0.359375 6.65625 -0.328125 C 6.6875 -0.304688 6.703125 -0.25 6.703125 -0.15625 C 6.703125 -0.0390625 6.613281 0.0390625 6.4375 0.09375 C 6.269531 0.144531 6.101562 0.171875 5.9375 0.171875 C 5.582031 0.171875 5.269531 0.0664062 5 -0.140625 C 4.726562 -0.347656 4.578125 -0.625 4.546875 -0.96875 C 4.347656 -0.601562 4.046875 -0.320312 3.640625 -0.125 C 3.234375 0.0703125 2.800781 0.171875 2.34375 0.171875 Z M 2.78125 -0.578125 C 3.101562 -0.578125 3.394531 -0.65625 3.65625 -0.8125 C 3.925781 -0.976562 4.140625 -1.195312 4.296875 -1.46875 C 4.460938 -1.738281 4.546875 -2.046875 4.546875 -2.390625 L 4.546875 -3.171875 C 3.566406 -3.097656 2.875 -2.941406 2.46875 -2.703125 C 2.070312 -2.460938 1.875 -2.070312 1.875 -1.53125 C 1.875 -0.894531 2.175781 -0.578125 2.78125 -0.578125 Z M 2.78125 -0.578125 "/></g></g><g style="fill:#000000;fill-opacity:1;"><g transform="translate(198.264435, 312.618817)"><path style="stroke:none" d=""/></g></g><g style="fill:#000000;fill-opacity:1;"><g transform="translate(200.757862, 312.618817)"><path style="stroke:none" d="M 0.84375 0.046875 C 0.757812 0.046875 0.691406 0.015625 0.640625 -0.046875 C 0.597656 -0.109375 0.578125 -0.179688 0.578125 -0.265625 C 0.585938 -0.398438 0.617188 -0.484375 0.671875 -0.515625 C 0.722656 -0.546875 0.816406 -0.5625 0.953125 -0.5625 C 1.222656 -0.5625 1.421875 -0.609375 1.546875 -0.703125 C 1.671875 -0.796875 1.75 -0.914062 1.78125 -1.0625 C 1.820312 -1.207031 1.847656 -1.394531 1.859375 -1.625 L 1.859375 -7.15625 C 1.847656 -7.394531 1.820312 -7.582031 1.78125 -7.71875 C 1.75 -7.863281 1.671875 -7.984375 1.546875 -8.078125 C 1.421875 -8.179688 1.222656 -8.234375 0.953125 -8.234375 L 0.859375 -8.234375 C 0.765625 -8.234375 0.695312 -8.25 0.65625 -8.28125 C 0.613281 -8.3125 0.585938 -8.394531 0.578125 -8.53125 C 0.578125 -8.613281 0.597656 -8.6875 0.640625 -8.75 C 0.691406 -8.8125 0.757812 -8.84375 0.84375 -8.84375 C 1.4375 -8.8125 1.992188 -8.796875 2.515625 -8.796875 L 4.59375 -8.796875 C 5.40625 -8.796875 6.1875 -8.628906 6.9375 -8.296875 C 7.695312 -7.960938 8.078125 -7.289062 8.078125 -6.28125 C 8.078125 -5.726562 7.910156 -5.234375 7.578125 -4.796875 C 7.242188 -4.359375 6.8125 -4.019531 6.28125 -3.78125 C 5.75 -3.539062 5.191406 -3.421875 4.609375 -3.421875 C 4.078125 -3.421875 3.613281 -3.492188 3.21875 -3.640625 L 3.21875 -1.625 C 3.226562 -1.394531 3.25 -1.207031 3.28125 -1.0625 C 3.3125 -0.914062 3.390625 -0.796875 3.515625 -0.703125 C 3.648438 -0.609375 3.851562 -0.5625 4.125 -0.5625 L 4.203125 -0.5625 C 4.296875 -0.5625 4.363281 -0.539062 4.40625 -0.5 C 4.445312 -0.46875 4.472656 -0.390625 4.484375 -0.265625 C 4.484375 -0.179688 4.460938 -0.109375 4.421875 -0.046875 C 4.378906 0.015625 4.316406 0.046875 4.234375 0.046875 C 3.640625 0.015625 3.0625 0 2.5 0 C 1.988281 0 1.4375 0.015625 0.84375 0.046875 Z M 4.203125 -4.046875 C 4.535156 -4.046875 4.878906 -4.113281 5.234375 -4.25 C 5.597656 -4.382812 5.90625 -4.613281 6.15625 -4.9375 C 6.40625 -5.269531 6.53125 -5.707031 6.53125 -6.25 C 6.53125 -7.0625 6.269531 -7.601562 5.75 -7.875 C 5.226562 -8.144531 4.675781 -8.28125 4.09375 -8.28125 C 3.851562 -8.28125 3.671875 -8.253906 3.546875 -8.203125 C 3.429688 -8.148438 3.347656 -8.046875 3.296875 -7.890625 C 3.242188 -7.742188 3.21875 -7.515625 3.21875 -7.203125 L 3.21875 -4.1875 C 3.4375 -4.09375 3.765625 -4.046875 4.203125 -4.046875 Z M 4.203125 -4.046875 "/></g></g><g style="fill:#000000;fill-opacity:1;"><g transform="translate(208.559974, 312.618817)"><path style="stroke:none" d="M 2.34375 0.171875 C 1.78125 0.171875 1.328125 0.015625 0.984375 -0.296875 C 0.640625 -0.617188 0.46875 -1.015625 0.46875 -1.484375 C 0.46875 -2.078125 0.660156 -2.519531 1.046875 -2.8125 C 1.441406 -3.101562 1.910156 -3.289062 2.453125 -3.375 C 2.992188 -3.46875 3.691406 -3.535156 4.546875 -3.578125 L 4.546875 -4.6875 C 4.546875 -5.132812 4.429688 -5.476562 4.203125 -5.71875 C 3.972656 -5.957031 3.609375 -6.078125 3.109375 -6.078125 C 2.816406 -6.078125 2.5625 -5.988281 2.34375 -5.8125 C 2.132812 -5.632812 2.03125 -5.394531 2.03125 -5.09375 C 2.03125 -4.945312 2.066406 -4.820312 2.140625 -4.71875 C 2.210938 -4.625 2.285156 -4.546875 2.359375 -4.484375 C 2.441406 -4.421875 2.484375 -4.382812 2.484375 -4.375 C 2.484375 -4.320312 2.421875 -4.25 2.296875 -4.15625 C 2.179688 -4.070312 2.039062 -4.03125 1.875 -4.03125 C 1.601562 -4.03125 1.382812 -4.128906 1.21875 -4.328125 C 1.050781 -4.535156 0.96875 -4.78125 0.96875 -5.0625 C 0.96875 -5.539062 1.179688 -5.894531 1.609375 -6.125 C 2.046875 -6.363281 2.570312 -6.484375 3.1875 -6.484375 C 3.945312 -6.484375 4.566406 -6.335938 5.046875 -6.046875 C 5.523438 -5.753906 5.765625 -5.222656 5.765625 -4.453125 L 5.765625 -1.203125 C 5.773438 -1.003906 5.835938 -0.816406 5.953125 -0.640625 C 6.066406 -0.460938 6.25 -0.375 6.5 -0.375 C 6.570312 -0.375 6.625 -0.359375 6.65625 -0.328125 C 6.6875 -0.304688 6.703125 -0.25 6.703125 -0.15625 C 6.703125 -0.0390625 6.613281 0.0390625 6.4375 0.09375 C 6.269531 0.144531 6.101562 0.171875 5.9375 0.171875 C 5.582031 0.171875 5.269531 0.0664062 5 -0.140625 C 4.726562 -0.347656 4.578125 -0.625 4.546875 -0.96875 C 4.347656 -0.601562 4.046875 -0.320312 3.640625 -0.125 C 3.234375 0.0703125 2.800781 0.171875 2.34375 0.171875 Z M 2.78125 -0.578125 C 3.101562 -0.578125 3.394531 -0.65625 3.65625 -0.8125 C 3.925781 -0.976562 4.140625 -1.195312 4.296875 -1.46875 C 4.460938 -1.738281 4.546875 -2.046875 4.546875 -2.390625 L 4.546875 -3.171875 C 3.566406 -3.097656 2.875 -2.941406 2.46875 -2.703125 C 2.070312 -2.460938 1.875 -2.070312 1.875 -1.53125 C 1.875 -0.894531 2.175781 -0.578125 2.78125 -0.578125 Z M 2.78125 -0.578125 "/></g></g><g style="fill:#000000;fill-opacity:1;"><g transform="translate(214.926929, 312.618817)"><path style="stroke:none" d="M 0.6875 0.046875 C 0.613281 0.046875 0.554688 0.0195312 0.515625 -0.03125 C 0.472656 -0.09375 0.453125 -0.160156 0.453125 -0.234375 C 0.460938 -0.359375 0.488281 -0.429688 0.53125 -0.453125 C 0.582031 -0.472656 0.671875 -0.484375 0.796875 -0.484375 C 1.035156 -0.484375 1.207031 -0.523438 1.3125 -0.609375 C 1.414062 -0.691406 1.472656 -0.789062 1.484375 -0.90625 C 1.492188 -1.019531 1.5 -1.195312 1.5 -1.4375 L 1.5 -4.625 C 1.5 -4.863281 1.492188 -5.039062 1.484375 -5.15625 C 1.472656 -5.269531 1.414062 -5.367188 1.3125 -5.453125 C 1.207031 -5.535156 1.035156 -5.578125 0.796875 -5.578125 C 0.679688 -5.578125 0.59375 -5.59375 0.53125 -5.625 C 0.476562 -5.65625 0.453125 -5.734375 0.453125 -5.859375 C 0.453125 -5.910156 0.472656 -5.960938 0.515625 -6.015625 C 0.554688 -6.066406 0.613281 -6.097656 0.6875 -6.109375 C 1.289062 -6.203125 1.785156 -6.320312 2.171875 -6.46875 C 2.328125 -6.507812 2.4375 -6.535156 2.5 -6.546875 L 2.53125 -6.546875 C 2.6875 -6.546875 2.765625 -6.457031 2.765625 -6.28125 L 2.765625 -5.421875 L 2.796875 -5.421875 C 3.128906 -5.742188 3.460938 -6 3.796875 -6.1875 C 4.128906 -6.382812 4.429688 -6.484375 4.703125 -6.484375 C 5.003906 -6.484375 5.242188 -6.367188 5.421875 -6.140625 C 5.609375 -5.910156 5.703125 -5.648438 5.703125 -5.359375 C 5.703125 -5.097656 5.617188 -4.863281 5.453125 -4.65625 C 5.296875 -4.445312 5.082031 -4.34375 4.8125 -4.34375 C 4.675781 -4.34375 4.5625 -4.367188 4.46875 -4.421875 C 4.375 -4.484375 4.320312 -4.535156 4.3125 -4.578125 C 4.320312 -4.585938 4.367188 -4.640625 4.453125 -4.734375 C 4.535156 -4.835938 4.578125 -4.957031 4.578125 -5.09375 C 4.578125 -5.257812 4.53125 -5.390625 4.4375 -5.484375 C 4.351562 -5.585938 4.234375 -5.640625 4.078125 -5.640625 C 3.921875 -5.640625 3.722656 -5.5625 3.484375 -5.40625 C 3.242188 -5.257812 3.007812 -5.070312 2.78125 -4.84375 L 2.78125 -1.4375 C 2.78125 -1.195312 2.785156 -1.019531 2.796875 -0.90625 C 2.816406 -0.789062 2.878906 -0.691406 2.984375 -0.609375 C 3.085938 -0.523438 3.257812 -0.484375 3.5 -0.484375 L 3.578125 -0.484375 C 3.648438 -0.484375 3.707031 -0.46875 3.75 -0.4375 C 3.789062 -0.414062 3.8125 -0.347656 3.8125 -0.234375 C 3.8125 -0.160156 3.789062 -0.09375 3.75 -0.03125 C 3.71875 0.0195312 3.664062 0.046875 3.59375 0.046875 C 3.050781 0.015625 2.5625 0 2.125 0 C 1.707031 0 1.226562 0.015625 0.6875 0.046875 Z M 0.6875 0.046875 "/></g></g><g style="fill:#000000;fill-opacity:1;"><g transform="translate(220.234939, 312.618817)"><path style="stroke:none" d="M 0.546875 0.046875 C 0.472656 0.046875 0.414062 0.0195312 0.375 -0.03125 C 0.34375 -0.09375 0.328125 -0.160156 0.328125 -0.234375 C 0.328125 -0.359375 0.347656 -0.429688 0.390625 -0.453125 C 0.429688 -0.472656 0.515625 -0.484375 0.640625 -0.484375 C 0.878906 -0.484375 1.050781 -0.523438 1.15625 -0.609375 C 1.257812 -0.691406 1.316406 -0.789062 1.328125 -0.90625 C 1.347656 -1.019531 1.359375 -1.195312 1.359375 -1.4375 L 1.359375 -8.21875 C 1.359375 -8.457031 1.351562 -8.632812 1.34375 -8.75 C 1.332031 -8.863281 1.273438 -8.960938 1.171875 -9.046875 C 1.066406 -9.128906 0.894531 -9.171875 0.65625 -9.171875 C 0.539062 -9.171875 0.457031 -9.1875 0.40625 -9.21875 C 0.351562 -9.25 0.328125 -9.328125 0.328125 -9.453125 C 0.328125 -9.503906 0.34375 -9.554688 0.375 -9.609375 C 0.414062 -9.660156 0.472656 -9.691406 0.546875 -9.703125 C 1.128906 -9.785156 1.628906 -9.90625 2.046875 -10.0625 C 2.179688 -10.101562 2.289062 -10.128906 2.375 -10.140625 L 2.40625 -10.140625 C 2.5625 -10.140625 2.640625 -10.050781 2.640625 -9.875 L 2.640625 -3.515625 C 3.046875 -3.597656 3.378906 -3.769531 3.640625 -4.03125 L 4.8125 -5.21875 C 4.832031 -5.25 4.882812 -5.3125 4.96875 -5.40625 C 5.0625 -5.507812 5.109375 -5.59375 5.109375 -5.65625 C 5.109375 -5.800781 4.894531 -5.859375 4.46875 -5.828125 C 4.375 -5.847656 4.320312 -5.929688 4.3125 -6.078125 C 4.3125 -6.148438 4.332031 -6.210938 4.375 -6.265625 C 4.414062 -6.328125 4.46875 -6.359375 4.53125 -6.359375 C 4.945312 -6.328125 5.457031 -6.3125 6.0625 -6.3125 C 6.195312 -6.3125 6.398438 -6.320312 6.671875 -6.34375 L 7 -6.359375 C 7.0625 -6.359375 7.113281 -6.328125 7.15625 -6.265625 C 7.195312 -6.210938 7.21875 -6.148438 7.21875 -6.078125 C 7.207031 -5.960938 7.179688 -5.890625 7.140625 -5.859375 C 7.109375 -5.835938 7.054688 -5.828125 6.984375 -5.828125 C 6.640625 -5.828125 6.351562 -5.765625 6.125 -5.640625 C 5.90625 -5.523438 5.648438 -5.3125 5.359375 -5 L 4.1875 -3.8125 C 4.425781 -3.476562 4.9375 -2.878906 5.71875 -2.015625 C 6.070312 -1.628906 6.253906 -1.425781 6.265625 -1.40625 C 6.597656 -1.050781 6.84375 -0.8125 7 -0.6875 C 7.164062 -0.570312 7.367188 -0.503906 7.609375 -0.484375 C 7.628906 -0.484375 7.664062 -0.476562 7.71875 -0.46875 C 7.78125 -0.46875 7.828125 -0.445312 7.859375 -0.40625 C 7.898438 -0.375 7.921875 -0.316406 7.921875 -0.234375 C 7.921875 -0.046875 7.84375 0.046875 7.6875 0.046875 C 7.601562 0.046875 7.460938 0.0351562 7.265625 0.015625 C 7.078125 0.00390625 6.601562 0 5.84375 0 C 5.5625 -0.289062 4.914062 -1.023438 3.90625 -2.203125 C 3.582031 -2.578125 3.429688 -2.753906 3.453125 -2.734375 C 3.179688 -3.015625 2.910156 -3.144531 2.640625 -3.125 L 2.640625 -1.4375 C 2.640625 -1.195312 2.644531 -1.019531 2.65625 -0.90625 C 2.664062 -0.789062 2.722656 -0.691406 2.828125 -0.609375 C 2.929688 -0.523438 3.101562 -0.484375 3.34375 -0.484375 L 3.421875 -0.484375 C 3.503906 -0.484375 3.566406 -0.46875 3.609375 -0.4375 C 3.648438 -0.414062 3.671875 -0.347656 3.671875 -0.234375 C 3.671875 -0.160156 3.648438 -0.09375 3.609375 -0.03125 C 3.566406 0.0195312 3.515625 0.046875 3.453125 0.046875 C 2.910156 0.015625 2.425781 0 2 0 C 1.570312 0 1.085938 0.015625 0.546875 0.046875 Z M 0.546875 0.046875 "/></g></g></g></svg>