<svg xmlns="http://www.w3.org/2000/svg" width="24" height="24" viewBox="0 0 24 24" fill="url(#tiktok-gradient)">
  <defs>
    <linearGradient id="tiktok-gradient" x1="0%" y1="0%" x2="100%" y2="100%">
      <stop offset="0%" style="stop-color:#FF0050"/>
      <stop offset="50%" style="stop-color:#FF0050"/>
      <stop offset="100%" style="stop-color:#00F2EA"/>
    </linearGradient>
  </defs>
  <path d="M19.589 6.686a4.793 4.793 0 0 1-3.77-4.245V2h-3.445v13.672a2.896 2.896 0 0 1-5.201 1.743l-.002-.001.002.001a2.895 2.895 0 0 1 3.183-4.51v-3.5a6.329 6.329 0 0 0-1.032-.087l-.38.01A6.441 6.441 0 0 0 2.5 15.747 6.44 6.44 0 0 0 8.943 22.18 6.44 6.44 0 0 0 15.389 15.747a6.562 6.562 0 0 0-.122-1.235V6.759a8.342 8.342 0 0 0 4.3 1.192V4.54a4.793 4.793 0 0 1-.978-.854z"/>
</svg>